HIERARCHY
ROOT Hips
{
	OFFSET 0.000000 0.000000 0.000000 
	CHANNELS 6 Xposition Yposition Zposition Zrotation Yrotation Xrotation
	JOINT LeftUpLeg
	{
		OFFSET 1.363060 -1.794630 0.839290 
		CHANNELS 3 Zrotation Yrotation Xrotation
		JOINT LeftLeg
		{
			OFFSET 2.448110 -6.726130 0.000000 
			CHANNELS 3 Zrotation Yrotation Xrotation
			JOINT LeftFoot
			{
				OFFSET 2.562200 -7.039590 0.000000 
				CHANNELS 3 Zrotation Yrotation Xrotation
				JOINT LeftToeBase
				{
					OFFSET 0.157640 -0.433110 2.322550 
					CHANNELS 3 Zrotation Yrotation Xrotation
					End Site
					{
						OFFSET 0.000000 0.000000 0.000000 
					}
				}
			}
		}
	}
	JOINT RightUpLeg
	{
		OFFSET -1.305520 -1.794630 0.839290 
		CHANNELS 3 Zrotation Yrotation Xrotation
		JOINT RightLeg
		{
			OFFSET -2.542530 -6.985550 0.000000 
			CHANNELS 3 Zrotation Yrotation Xrotation
			JOINT RightFoot
			{
				OFFSET -2.568260 -7.056230 0.000000 
				CHANNELS 3 Zrotation Yrotation Xrotation
				JOINT RightToeBase
				{
					OFFSET -0.164730 -0.452590 2.363150 
					CHANNELS 3 Zrotation Yrotation Xrotation
					End Site
					{
						OFFSET 0.000000 0.000000 0.000000 
					}
				}
			}
		}
	}
	JOINT Spine
	{
		OFFSET 0.028270 2.035590 -0.193380 
		CHANNELS 3 Zrotation Yrotation Xrotation
		JOINT Spine1
		{
			OFFSET 0.056720 2.048850 -0.042750 
			CHANNELS 3 Zrotation Yrotation Xrotation
			JOINT Neck1
			{
				OFFSET -0.054170 1.746240 0.172020 
				CHANNELS 3 Zrotation Yrotation Xrotation
				JOINT Head
				{
					OFFSET 0.104070 1.761360 -0.123970 
					CHANNELS 3 Zrotation Yrotation Xrotation
					End Site
					{
						OFFSET 0.000000 0.000000 0.000000 
					}
				}
			}
			JOINT LeftArm
			{
				OFFSET 3.362410 1.200890 -0.311210 
				CHANNELS 3 Zrotation Yrotation Xrotation
				JOINT LeftForeArm
				{
					OFFSET 4.983000 -0.000000 -0.000000 
					CHANNELS 3 Zrotation Yrotation Xrotation
					JOINT LeftHand
					{
						OFFSET 3.483560 -0.000000 -0.000000 
						CHANNELS 3 Zrotation Yrotation Xrotation
						JOINT LeftHandIndex1
						{
							OFFSET 0.715260 -0.000000 -0.000000 
							CHANNELS 3 Zrotation Yrotation Xrotation
							End Site
							{
								OFFSET 0.000000 0.000000 0.000000 
							}
						}
					}
				}
			}
			JOINT RightArm
			{
				OFFSET -3.136600 1.374050 -0.404650 
				CHANNELS 3 Zrotation Yrotation Xrotation
				JOINT RightForeArm
				{
					OFFSET -5.241900 -0.000000 -0.000000 
					CHANNELS 3 Zrotation Yrotation Xrotation
					JOINT RightHand
					{
						OFFSET -3.444170 -0.000000 -0.000000 
						CHANNELS 3 Zrotation Yrotation Xrotation
						JOINT RightHandIndex1
						{
							OFFSET -0.622530 -0.000000 -0.000000 
							CHANNELS 3 Zrotation Yrotation Xrotation
							End Site
							{
								OFFSET 0.000000 0.000000 0.000000 
							}
						}
					}
				}
			}
		}
	}
}
MOTION
Frames: 15
Frame Time: 0.041667
-39.771676 17.028980 13.313077 -166.498837 77.938421 -153.817080 -7.509226 15.940714 -40.567154 12.798883 20.373490 66.910352 0.603791 0.600812 -1.179628 0.055800 -1.524200 -4.192400 4.454067 -4.157708 -13.553149 -0.933500 -9.798040 28.896289 1.529718 -7.560066 -3.823382 -4.214800 12.440900 -37.310100 0.950175 4.033435 -2.096736 3.309588 1.487035 1.950597 2.568053 -1.294478 1.327422 4.029100 1.236900 -2.845700 -80.111442 20.077522 47.262410 12.288069 -31.826703 -4.916181 -0.882624 -3.218051 -25.619055 -7.125000 0.000000 0.000000 72.237114 33.029404 50.877339 -94.118375 56.582728 -68.994321 -0.324661 -0.695618 26.780714 7.125000 0.000000 0.000000 
-39.654178 16.980080 13.180516 -164.894963 77.890403 -152.371658 -6.483138 15.941935 -41.144710 12.931547 20.414099 67.010565 0.536134 0.852517 -1.569579 0.047200 -1.402300 -3.856600 4.401302 -4.245844 -12.835269 -0.793517 -9.540059 28.217085 1.539960 -7.575488 -3.702997 -4.334700 12.593000 -37.863300 0.849171 4.538745 -2.050253 2.293165 1.915812 1.797787 2.728582 -1.906651 1.131349 4.325700 1.051300 -3.095900 -78.420024 21.480571 47.842516 11.057540 -30.484610 -4.357169 -0.801611 -3.446671 -24.662761 -7.125000 0.000000 0.000000 72.048610 34.394334 50.179723 -86.134515 56.166667 -62.175602 -0.405405 -0.810484 28.266684 7.125000 0.000000 0.000000 
-39.539808 16.912757 13.051662 -163.746576 77.864041 -151.213176 -5.478242 15.753064 -41.773121 12.941639 20.446539 66.798301 0.552446 0.860134 -1.841073 0.001400 -0.245700 -0.675100 4.316615 -4.499306 -12.312040 -0.685019 -9.267748 27.538569 1.898579 -8.294741 -3.476225 -4.665200 12.996500 -39.355500 0.823596 5.259127 -1.985469 2.704124 2.261215 1.767676 2.996337 -2.435226 0.983387 4.814600 0.951600 -3.306000 -77.682857 22.874914 48.311319 10.015859 -29.533552 -3.885644 -0.782401 -3.558754 -23.722483 -7.125000 0.000000 0.000000 70.993378 35.519743 49.078638 -77.578920 55.278408 -54.840939 -0.495916 -0.886210 28.671741 7.125000 0.000000 0.000000 
-39.410144 16.864900 12.928022 -162.081539 77.908110 -149.417486 -4.562483 15.988095 -42.504736 12.890465 20.430448 66.356865 0.478401 1.141738 -2.098088 0.000300 0.109100 0.299700 4.308710 -4.315115 -11.642914 -0.500435 -8.950085 26.651727 2.194921 -8.884707 -3.155001 -4.816400 13.174000 -40.023200 0.776263 5.974043 -1.886757 2.982484 2.631271 2.238733 3.271810 -2.838770 0.987233 5.389600 0.929700 -3.290700 -76.623385 23.910220 48.844991 9.323029 -28.976299 -3.586374 -0.757810 -3.689078 -23.128910 -7.125000 0.000000 0.000000 70.136642 37.157616 47.775132 -67.943070 53.684530 -46.397980 -0.643858 -1.024471 29.641189 7.125000 0.000000 0.000000 
-39.270977 16.813335 12.801138 -159.225754 77.842322 -146.516566 -3.464055 16.566633 -43.405152 12.863532 20.388231 65.871263 0.334375 1.571221 -1.967806 0.000300 0.114600 0.314800 4.561360 -3.805968 -10.779002 -0.281505 -8.627802 25.726030 2.804538 -10.114022 -3.185932 -5.095900 13.491000 -41.235400 0.720370 6.840126 -1.821784 2.785919 3.109766 2.105351 3.309077 -3.429056 0.833240 5.351200 0.675800 -3.879500 -74.655278 25.845869 50.071719 8.984502 -28.977562 -3.479932 -0.649167 -3.932471 -23.060054 -7.125000 0.000000 0.000000 69.684200 38.091007 45.951471 -58.262859 51.432688 -38.042269 -0.796349 -1.217917 30.216636 7.125000 0.000000 0.000000 
-39.123235 16.776139 12.660697 -157.272516 77.721979 -144.444206 -2.552345 16.858416 -44.167256 12.752389 20.326442 65.232870 0.136817 2.160913 -1.978871 0.002900 0.350400 0.962800 4.629644 -3.471923 -9.938182 -0.076798 -8.248004 24.592281 3.730526 -11.993600 -2.942730 -5.585100 14.013900 -43.293100 0.630247 7.618031 -1.743361 2.232401 3.610663 2.852910 3.349766 -4.480470 0.753612 5.468300 0.278200 -3.486000 -72.545001 26.630523 51.514797 8.996941 -29.203056 -3.517443 -0.520218 -4.185018 -23.691374 -7.125000 0.000000 0.000000 68.648526 40.659062 42.976914 -48.685882 48.045180 -30.155950 -1.013074 -1.477058 29.914585 7.125000 0.000000 0.000000 
-38.965760 16.732917 12.515389 -156.965982 77.766008 -143.900776 -2.171750 17.144982 -44.964555 12.564982 20.238697 64.494954 -0.172882 3.082157 -2.337882 0.000600 -0.152000 -0.417700 4.285626 -3.201529 -9.141597 0.098882 -7.813264 23.347176 4.427980 -13.407092 -2.474169 -5.932600 14.362800 -44.710800 0.523910 8.296111 -1.736730 1.919022 4.061611 2.846507 3.563124 -5.321845 0.837359 5.767900 -0.071500 -3.329300 -70.256832 28.320515 52.992866 9.276505 -29.887353 -3.716804 -0.382198 -4.455318 -24.870530 -7.125000 0.000000 0.000000 67.823326 42.909927 39.894316 -39.046725 43.312695 -22.632896 -1.249543 -1.861557 31.748116 7.125000 0.000000 0.000000 
-38.793801 16.690159 12.363476 -156.772763 77.693863 -143.377133 -1.863680 17.555216 -45.864822 12.361461 20.147075 63.703201 -0.481790 3.963349 -2.527235 0.024600 -1.013300 -2.785300 4.025413 -2.709018 -8.167737 0.336042 -7.362196 22.131613 4.262239 -13.050380 -2.269055 -5.735500 14.167000 -43.910700 0.443430 9.050747 -1.684249 2.047962 4.509293 3.061065 3.656039 -6.026034 0.880512 5.992600 -0.338000 -3.537100 -68.032349 29.911292 54.564919 9.702980 -30.928179 -4.029196 -0.214273 -4.714748 -26.291186 -7.125000 0.000000 0.000000 66.304813 45.160268 36.168954 -30.804082 37.836575 -16.761085 -1.582288 -2.264768 33.730010 7.125000 0.000000 0.000000 
-38.621841 16.651804 12.208666 -156.138223 77.277687 -142.356078 -1.326895 17.842906 -46.931724 12.169276 20.056935 62.915693 -0.550243 4.119289 -2.071732 0.028200 -1.083300 -2.977900 4.072509 -2.195383 -7.194784 0.577369 -6.903834 20.901389 4.282907 -13.085465 -1.903072 -5.567600 13.995800 -43.220500 0.409469 9.792488 -1.702003 2.530408 4.884036 2.889006 3.757374 -6.852275 0.927454 6.260200 -0.678200 -3.462500 -66.331875 31.692658 55.811422 10.365484 -32.212727 -4.494799 -0.071878 -4.873857 -27.435839 -7.125000 0.000000 0.000000 63.989972 46.866527 31.842123 -24.215816 32.147928 -12.533805 -1.965547 -2.722384 35.627915 7.125000 0.000000 0.000000 
-38.452894 16.603716 12.051191 -156.426473 76.745339 -142.103135 -0.979400 17.912870 -48.113429 11.990218 19.978341 62.250246 -0.549459 4.051480 -1.328298 0.055700 -1.523300 -4.190000 4.003347 -1.776055 -6.323140 0.781458 -6.432155 19.581749 4.694547 -13.930591 -1.331506 -5.597800 14.026900 -43.345500 0.328669 10.521962 -1.714088 2.473962 5.353454 2.870648 3.834937 -7.966909 0.929250 6.452000 -1.153600 -3.507000 -63.557367 32.902384 57.709817 11.196119 -33.613685 -5.101383 0.089094 -5.031542 -28.771048 -7.125000 0.000000 0.000000 61.394956 48.234500 26.100288 -18.582099 26.534289 -9.475850 -2.335607 -3.292821 38.298987 7.125000 0.000000 0.000000 
-38.272939 16.559452 11.882823 -157.632936 76.396099 -142.862503 -1.028435 18.084973 -49.054387 11.783114 19.891959 61.583666 -0.581961 4.083049 -0.553214 0.177900 -2.717100 -7.492100 3.632284 -1.291466 -5.178177 0.993684 -5.911602 18.226199 4.512811 -13.550561 -0.913934 -5.301000 13.715000 -42.107600 0.218811 11.232788 -1.709743 2.363270 5.846561 3.003086 3.997011 -9.130086 0.996631 6.842700 -1.616700 -3.418400 -60.636466 33.509522 59.458352 11.733192 -34.561326 -5.580022 0.215159 -5.108139 -30.318997 -7.125000 0.000000 0.000000 58.372533 49.376384 18.795917 -13.733996 21.204874 -7.188385 -3.087950 -3.501029 40.781052 7.125000 0.000000 0.000000 
-38.088813 16.508466 11.704491 -158.727052 76.079530 -143.687348 -1.060088 18.295866 -49.760849 11.607802 19.834667 61.040114 -0.466755 3.718519 0.341959 0.273900 -3.366300 -9.300400 3.237807 -1.242093 -4.250745 1.068773 -5.394131 16.644956 5.880744 -16.479021 0.740659 -6.045100 14.471900 -45.162400 0.129909 12.094817 -1.690501 2.596537 6.363841 3.153961 4.206775 -10.354101 1.161590 7.355600 -2.108500 -3.108800 -58.362758 33.447205 60.913215 12.126637 -35.200470 -5.962030 0.377056 -5.217119 -31.533019 -7.125000 0.000000 0.000000 54.509073 49.755638 9.162337 -9.427069 16.262654 -5.393878 -3.405689 -3.867068 42.694774 7.125000 0.000000 0.000000 
-37.889738 16.490737 11.511442 -159.908304 75.617237 -144.525361 -1.359989 18.835639 -50.637092 11.469313 19.784965 60.645221 -0.159407 2.794911 1.650707 0.394100 -4.030900 -11.163700 2.977912 -1.364681 -3.125052 1.152403 -4.869414 15.104949 6.693709 -18.357676 2.242958 -6.514500 14.909100 -47.013400 0.036026 12.831291 -1.679566 2.437513 6.853351 3.271876 4.451592 -11.907333 1.107424 7.689300 -2.742800 -2.900900 -56.118955 33.179112 62.130135 12.861732 -36.071576 -6.531578 0.457350 -5.339994 -32.179335 -7.125000 0.000000 0.000000 50.703351 49.529296 -3.443912 -5.627942 11.741293 -3.922621 -3.303018 -4.230822 44.581957 7.125000 0.000000 0.000000 
-37.675484 16.462000 11.302865 -161.937846 75.202643 -146.232653 -1.812455 19.001265 -51.254911 11.403315 19.796612 60.572185 0.078265 2.054396 2.642082 0.596000 -4.942300 -13.744000 2.409692 -0.695033 -1.765249 1.270458 -4.391821 13.784790 6.800062 -18.753119 3.627491 -6.442200 14.843600 -46.731800 -0.070606 13.484359 -1.652005 2.189340 7.311974 3.314721 4.749594 -13.524011 0.900205 8.023800 -3.367500 -2.988100 -53.568992 32.814861 63.818609 14.483707 -37.766107 -7.668625 0.586042 -5.552355 -32.483434 -7.125000 0.000000 0.000000 47.349497 48.441942 -18.904486 -2.597746 7.834504 -2.959756 -3.022053 -4.601110 46.418840 7.125000 0.000000 0.000000 
-37.451612 16.400470 11.075285 -164.676597 74.875117 -148.625487 -2.524763 19.060663 -51.780236 11.415524 19.875946 60.809879 0.251983 1.477733 3.369938 0.861000 -5.917000 -16.543900 1.565930 0.096643 -0.342256 1.323754 -3.950398 12.482005 7.185989 -19.848054 5.299826 -6.489200 14.886200 -46.914900 -0.173060 14.092664 -1.587813 2.129546 7.735522 3.547338 5.187492 -15.096355 0.649946 8.547200 -3.899600 -3.096900 -51.475551 32.076498 65.268274 15.794809 -39.001632 -8.563691 0.569781 -5.718839 -32.501852 -7.125000 0.000000 0.000000 44.065203 46.693776 -36.410832 -0.985786 4.756648 -2.389459 -3.140526 -4.545607 44.729852 7.125000 0.000000 0.000000 
